<svg width="20" height="20" xmlns="http://www.w3.org/2000/svg">
    <g transform="translate(2.5)" fill="none" fill-rule="evenodd">
        <path d="M14 2a1 1 0 0 1 1 1v16a1 1 0 0 1-1 1H1a1 1 0 0 1-1-1V3a1 1 0 0 1 1-1h4.5v2.6a.4.4 0 0 0 .32.392L5.9 5h3.2a.4.4 0 0 0 .4-.4V2H14zM6.6 17H3.4a.4.4 0 0 0-.4.4v.2c0 .22.18.4.4.4h3.2a.4.4 0 0 0 .4-.4v-.2a.4.4 0 0 0-.4-.4zm5 0H8.4a.4.4 0 0 0-.4.4v.2c0 .22.18.4.4.4h3.2a.4.4 0 0 0 .4-.4v-.2a.4.4 0 0 0-.4-.4zm0-2H3.4a.4.4 0 0 0-.4.4v.2c0 .22.18.4.4.4h8.2a.4.4 0 0 0 .4-.4v-.2a.4.4 0 0 0-.4-.4zM7.5 5.5a2 2 0 0 0-1.4 3.428C5.438 9.378 5 10.138 5 11v1.6l.007.113a.9.9 0 0 0 .893.787h3.2l.113-.007A.9.9 0 0 0 10 12.6V11l-.007-.183A2.491 2.491 0 0 0 8.9 8.93 2 2 0 0 0 7.5 5.5zm0 4 .144.007.141.02A1.5 1.5 0 0 1 9 11v1.5H6V11l.007-.144A1.5 1.5 0 0 1 7.5 9.5zm0-3a1 1 0 1 1 0 2 1 1 0 0 1 0-2z" fill="#767676"/>
        <rect stroke="#767676" x="6" y=".5" width="3" height="4" rx=".4"/>
    </g>
</svg>
