<svg width="56" height="16" xmlns="http://www.w3.org/2000/svg">
    <g fill="none" fill-rule="evenodd">
        <path fill="#FFF" d="M-54-19h1920v2400H-54z"/>
        <path d="M8.96 11.806V8.372h-.208c-.267 2.974-3.782 3.217-4.605 3.228h-.35V2.136C3.797.997 4.263.87 4.955.87V.665H0V.87c.692 0 1.03.19 1.03 1.156v8.023c0 1.077-.21 1.551-.901 1.551v.206H8.96zm3.218.143c1.142 0 2.027-.586 2.252-1.346.148 1.233 1.512 1.336 1.738 1.345h.032c1.013 0 1.802-.538 1.979-1.139l-.177-.095c-.097.27-.467.27-.467.27-.727.014-.77-.98-.772-1.097v-2.37c0-1.867-.869-3.165-2.976-3.165l-.037-.001h-.103c-.264.004-.862.049-1.405.333-.74.38-.98.744-1.158.982-.225.269-.257.696-.08 1.06.257.49.885.68 1.383.427.499-.269.692-.87.435-1.36-.145-.254-.338-.412-.596-.475-.337-.095-.112-.349.145-.475 1.11-.554 2.043.285 2.043 1.93v.998c-2.831.68-4.166.917-4.166 2.563 0 1.488 1.624 1.615 1.93 1.615zm1.368-.966c-.837 0-.837-1.044-.837-1.044 0-.776.257-1.63 1.705-1.947v2.295c-.16.38-.45.696-.868.696zM22.056 16v-.206c-.563-.142-.66-.712-.66-1.582v-2.69c.483.268 1.142.427 1.947.427 2.155 0 4.07-.982 4.07-3.83 0-2.216-1.4-3.767-3.41-3.767-1.127 0-2.124.412-2.607 1.266V4.352l-3.185.649v.206c.66.237.82.395.82.95v8.055c0 .807-.016 1.408-.627 1.582V16h3.652zm.949-4.257c-.837 0-1.496-.649-1.609-2.168V6.758c.097-.997.531-1.836 1.496-1.836 1.223 0 1.754 1.187 1.754 3.387 0 2.468-.612 3.434-1.641 3.434zm8.912.063v-.19c-.579-.158-.66-.791-.66-1.661V0l-3.2.633v.19c.659.237.836.475.836 1.029v8.103c0 .822-.032 1.487-.644 1.661v.19h3.668zm2.623.143c1.142 0 2.027-.586 2.252-1.346.147 1.233 1.511 1.336 1.738 1.345h.031c1.014 0 1.802-.538 1.98-1.139l-.178-.095c-.096.27-.466.27-.466.27-.727.014-.77-.98-.772-1.097v-2.37c0-1.867-.87-3.165-2.977-3.165l-.036-.001h-.103c-.265.004-.862.049-1.405.333-.74.38-.981.744-1.158.982-.226.269-.258.696-.08 1.06.257.49.884.68 1.383.427.498-.269.691-.87.434-1.36-.145-.254-.338-.412-.595-.475-.338-.095-.113-.349.145-.475 1.11-.554 2.043.285 2.043 1.93v.998c-2.832.68-4.167.917-4.167 2.563 0 1.488 1.625 1.615 1.93 1.615zm1.367-.966c-.837 0-.837-1.044-.837-1.044 0-.776.258-1.63 1.706-1.947v2.295c-.161.38-.45.696-.87.696zm8.832.966c2.01 0 3.056-1.219 3.17-2.121l-.178-.095c-.29.538-1.223.886-2.027.807-1.239-.127-2.075-.95-2.075-2.659 0-2.421.981-3.323 1.737-3.323.805 0 1.078.396.917.475a.957.957 0 0 0-.547.633c-.193.57.129 1.187.724 1.377a1.148 1.148 0 0 0 1.432-.728c.113-.396-.016-.87-.29-1.124-.337-.332-1.077-.839-2.284-.839-2.896 0-4.28 1.773-4.28 3.767 0 2.041 1.593 3.83 3.7 3.83zm7.657 0c2.092 0 3.154-1.187 3.379-2.184l-.21-.08c-.353 1.045-1.544 1.44-2.38 1.25-1.078-.237-1.866-.949-1.93-2.927H56c0-2.722-1.351-3.656-3.378-3.656-2.092 0-3.91 1.361-3.91 3.83 0 1.994 1.577 3.767 3.684 3.767zm1.464-4.147h-2.606c0-1.52.515-3.244 1.368-3.244.804 0 1.238 1.25 1.238 3.244z" fill="#171717" fill-rule="nonzero"/>
    </g>
</svg>
