<svg width="98" height="28" xmlns="http://www.w3.org/2000/svg">
    <path d="M15.681 20.66v-6.01h-.366c-.466 5.205-6.617 5.631-8.058 5.65h-.613V3.74c0-1.994.816-2.216 2.027-2.216v-.36H0v.36c1.21 0 1.802.333 1.802 2.022v14.042c0 1.883-.366 2.714-1.577 2.714v.36h15.456zm5.63.25c2 0 3.548-1.025 3.942-2.354.258 2.158 2.645 2.338 3.041 2.353l.056.001c1.774 0 3.153-.942 3.463-1.994l-.31-.166c-.169.47-.816.47-.816.47-1.272.027-1.347-1.714-1.351-1.918v-4.147c0-3.268-1.521-5.539-5.209-5.539l-.064-.002h-.18c-.463.007-1.509.085-2.459.584-1.295.665-1.717 1.302-2.027 1.717-.394.47-.45 1.219-.14 1.856.45.858 1.548 1.19 2.42.747.873-.47 1.211-1.523.76-2.382-.253-.443-.59-.72-1.04-.83-.592-.167-.198-.61.253-.831 1.942-.97 3.575.498 3.575 3.379v1.744c-4.955 1.191-7.292 1.607-7.292 4.487 0 2.603 2.844 2.825 3.379 2.825zm2.394-1.69c-1.464 0-1.464-1.827-1.464-1.827 0-1.357.45-2.853 2.984-3.407v4.016c-.282.665-.788 1.219-1.52 1.219zM38.598 28v-.36c-.986-.25-1.155-1.246-1.155-2.77v-4.708c.845.471 2 .748 3.407.748 3.772 0 7.122-1.717 7.122-6.702 0-3.878-2.449-6.592-5.968-6.592-1.97 0-3.716.72-4.56 2.216V7.616l-5.575 1.136v.36c1.154.415 1.436.692 1.436 1.661V24.87c0 1.413-.028 2.465-1.098 2.77V28h6.39zm1.66-7.45c-1.463 0-2.618-1.136-2.815-3.794v-4.93c.17-1.745.93-3.213 2.618-3.213 2.14 0 3.07 2.077 3.07 5.927 0 4.32-1.07 6.01-2.872 6.01zm15.597.11v-.332c-1.013-.277-1.154-1.384-1.154-2.908V0l-5.602 1.108v.332c1.154.416 1.463.831 1.463 1.8v14.18c0 1.44-.056 2.604-1.126 2.908v.333h6.42zm4.59.25c1.998 0 3.546-1.025 3.94-2.354.259 2.158 2.646 2.338 3.042 2.353l.055.001c1.774 0 3.153-.942 3.463-1.994l-.31-.166c-.168.47-.816.47-.816.47-1.272.027-1.347-1.714-1.351-1.918v-4.147c0-3.268-1.52-5.539-5.209-5.539l-.064-.002h-.18c-.463.007-1.508.085-2.458.584-1.295.665-1.718 1.302-2.027 1.717-.394.47-.45 1.219-.141 1.856.45.858 1.548 1.19 2.421.747.873-.47 1.21-1.523.76-2.382-.253-.443-.591-.72-1.041-.83-.592-.167-.197-.61.253-.831 1.943-.97 3.575.498 3.575 3.379v1.744c-4.955 1.191-7.291 1.607-7.291 4.487 0 2.603 2.843 2.825 3.378 2.825zm2.392-1.69c-1.464 0-1.464-1.827-1.464-1.827 0-1.357.45-2.853 2.984-3.407v4.016c-.281.665-.788 1.219-1.52 1.219zm15.456 1.69c3.52 0 5.35-2.133 5.546-3.711l-.31-.166c-.506.941-2.14 1.55-3.547 1.412-2.168-.221-3.632-1.662-3.632-4.653 0-4.237 1.718-5.816 3.041-5.816 1.408 0 1.886.693 1.605.831-.45.194-.789.554-.958 1.108-.337.997.226 2.077 1.267 2.41a2.01 2.01 0 0 0 2.506-1.275c.197-.692-.028-1.523-.507-1.966-.591-.582-1.886-1.468-3.997-1.468-5.068 0-7.49 3.102-7.49 6.592 0 3.572 2.788 6.702 6.476 6.702zm13.4 0c3.66 0 5.519-2.077 5.913-3.822l-.366-.138c-.62 1.827-2.703 2.52-4.167 2.187-1.886-.415-3.265-1.661-3.378-5.123H98c0-4.764-2.365-6.398-5.912-6.398-3.66 0-6.841 2.382-6.841 6.702 0 3.49 2.759 6.592 6.447 6.592zm2.563-7.256h-4.561c0-2.659.9-5.678 2.393-5.678 1.408 0 2.168 2.188 2.168 5.678z" fill="#171717" fill-rule="nonzero"/>
</svg>
